<svg xmlns="http://www.w3.org/2000/svg" viewBox="0 0 396 77.07"><defs><style>.cls-1{fill:#1e9c3d;}.cls-2{fill:#231f20;}</style></defs><title>Ресурс 2</title><g id="Слой_2" data-name="Слой 2"><g id="Isolation_Mode" data-name="Isolation Mode"><polygon class="cls-1" points="66.5 0.01 66.5 33.08 66.5 44 66.5 77.07 133.95 77.07 133.95 44 133.95 33.08 133.95 0.01 66.5 0.01"/><rect class="cls-2" y="0.01" width="16.17" height="77.06"/><rect class="cls-2" x="95.04" y="0.01" width="10.37" height="77.06"/><rect class="cls-2" x="75.56" y="71.72" width="49.32" height="5.35"/><rect class="cls-2" x="75.56" y="0.01" width="49.32" height="5.35"/><rect class="cls-2" y="62.4" width="54.36" height="14.67"/><rect class="cls-2" x="145.95" y="0.01" width="16.17" height="77.06"/><rect class="cls-2" x="145.95" y="0.01" width="54.36" height="14.67"/><rect class="cls-2" x="238.1" y="0.01" width="16.17" height="77.06"/><rect class="cls-2" x="212.95" y="0.01" width="66.46" height="14.67"/><rect class="cls-2" x="145.95" y="27.73" width="44.71" height="14.67"/><polygon class="cls-1" points="308.75 0 308.75 14.71 305.6 14.71 305.6 5.66 301.71 11.56 299.88 11.56 295.99 5.63 295.99 14.71 292.84 14.71 292.84 0 295.76 0 300.81 7.65 305.83 0 308.75 0"/><polygon class="cls-1" points="331.1 0 331.1 2.77 323.89 2.77 323.89 5.91 330.46 5.91 330.46 8.66 323.89 8.66 323.89 11.94 331.22 11.94 331.22 14.71 320.73 14.71 320.73 0 331.1 0"/><path class="cls-1" d="M348.06,0c5.23,0,7.71,3.09,7.71,7.36s-2.48,7.36-7.71,7.36h-5.51V0Zm0,2.77h-2.35v9.17h2.35c2.92,0,4.5-1.56,4.5-4.58s-1.58-4.58-4.5-4.58"/><rect class="cls-1" x="366.98" width="3.15" height="14.71"/><path class="cls-1" d="M380.6,14.71l6-14.71H390l6,14.71h-3.26L391.67,12h-6.73l-1.09,2.75Zm5.34-5.36h4.75l-2.06-5.28a6.56,6.56,0,0,1-.31-1.16A4.89,4.89,0,0,1,388,4.08Z"/></g></g></svg>